<svg xmlns="http://www.w3.org/2000/svg" width="145" height="70" viewBox="0 0 145 70">
    <g fill="none" fill-rule="evenodd">
        <g fill="#15005C">
            <g>
                <g>
                    <path d="M115 36.859l.674.43c.704.452 1.43.873 2.106 1.364.633.458 1.283.888 1.928 1.325 1.178.798 2.345 1.613 3.516 2.422.36.49.901.682 1.404.966.58.327 1.17.636 1.76.942.554.284.592.279.995-.146.233-.244.443-.498.539-.842.119-.428.134-.473-.182-.73-.366-.3-.75-.58-1.124-.869-.687-.528-1.342-1.105-2.064-1.574-1.217-.79-2.35-1.7-3.525-2.547-1.018-.732-2.011-1.492-3.159-2.01-.161-.073-.289-.126-.463-.046-.506.23-1.018.446-1.529.664-.31.133-.589.312-.876.65m-17-10.21c.025.052.035.127.074.145.493.225.903.572 1.347.868 1.642 1.093 3.344 2.109 4.854 3.382.063.052.147.084.224.118.94.425 1.718 1.088 2.526 1.69.491.365.962.728 1.533.964.207.086.391.224.585.34.17.1.333.216.51.302.235.114.482.016.528-.236.089-.496.308-.947.462-1.421.136-.42.244-.85.341-1.28.036-.157.022-.322-.155-.437-.709-.452-1.335-1.014-2.062-1.448-.678-.405-1.291-.907-1.955-1.337-.402-.261-.802-.52-1.176-.822-.478-.385-.956-.778-1.47-1.115-.683-.448-1.4-.846-1.982-1.429-.154-.152-.373-.249-.573-.35-.219-.11-.446-.121-.625.078-.213.238-.49.398-.788.472-.382.095-.677.306-.937.557-.225.218-.474.386-.738.553-.182.116-.417.193-.523.406M79.945 10.812c.027-.168.035-.195.035-.223.005-1.537.26-1.295-1.19-2.15-1.974-1.162-3.97-2.288-5.96-3.428-.81-.464-1.628-.915-2.434-1.385-.313-.182-.598-.15-.883.027-.119.074-.233.164-.322.267-.15.175-.324.327-.541.393-.506.154-.788.485-.996.938-.135.296-.384.542-.568.82-.139.21-.113.341.102.492.207.145.427.276.65.398.371.203.757.384 1.126.591.865.485 1.72.98 2.582 1.468.835.473 1.706.896 2.498 1.426.798.533 1.72.877 2.443 1.517.952.385 1.787.968 2.675 1.463.073.04.159.078.24.078.073 0 .175-.033.215-.086.062-.085.122-.2.118-.3-.027-.826.372-1.613.21-2.306m16.04 8.795c.06-.27-.063-.49-.208-.71-.13-.2-.326-.313-.507-.443-.478-.347-.976-.664-1.445-1.023-.85-.65-1.678-1.33-2.528-1.98-.494-.374-1.053-.664-1.512-1.076-.765-.688-1.665-1.145-2.494-1.723-.196-.136-.393-.16-.63-.144-.484.033-.91.242-1.359.383-.796.252-1.451.708-2.004 1.334-.21.236-.443.423-.708.591-.775.493-.794.823-.012 1.234.453.238.816.595 1.264.828.444.23.926.406 1.238.846.015.021.046.034.07.041.72.213 1.25.728 1.815 1.19.151.124.316.235.487.331 1.105.625 2.071 1.45 3.061 2.242.7.56 1.351 1.205 2.235 1.47.046.014.08.07.119.111.456.477 1.04.758 1.593 1.082.19.11.364.369.576.302.33-.104-.007-.451.15-.679.121-.175.1-.44.22-.644.07-.12.126-.267.131-.405.029-.607.193-1.195.239-1.793.034-.463.212-.892.208-1.365M71.16 26.504c.308-.321.224-.693.46-.96.812-.912 1.373-2.004 2.21-2.9.414-.83 1.115-1.437 1.739-2.104.19-.204.416-.384.566-.612.59-.901 1.16-1.814 1.73-2.729.195-.314.189-.335-.082-.537-.224-.167-.46-.32-.701-.461-.362-.212-.74-.398-1.097-.616-.455-.276-.894-.572-1.366-.826-.667-.36-1.31-.762-1.957-1.153-.671-.405-1.345-.808-2.04-1.166-.9-.462-1.733-1.02-2.597-1.532-.77-.456-1.59-.827-2.353-1.292-.113-.07-.264-.09-.402-.109-.078-.01-.198.003-.238.051-.187.235-.476.369-.624.647-.487.922-.934 1.863-1.437 2.779-.394.717-.647 1.509-.965 2.265-.159.38-.302.768-.494 1.131-.296.56-.647 1.091-.937 1.653-.212.411-.38.847-.538 1.282-.053.146-.042.33-.01.487.057.275.154.54.537.515.187-.012.311.107.44.217.17.143.335.297.522.414.972.61 1.944 1.222 2.93 1.81.964.574 1.935 1.137 2.921 1.674 1.036.564 2.102 1.078 3.096 1.713.212.134.447.234.687.359m15.802 10c.189.006.276-.1.35-.216.422-.667.855-1.322 1.43-1.87.135-.13.236-.3.34-.458.674-1.019 1.534-1.917 1.917-3.118.04-.127.14-.233.206-.352.57-1.023 1.138-2.048 1.704-3.073.14-.251.128-.33-.103-.463-.68-.391-1.346-.807-1.968-1.289-.212-.163-.39-.398-.625-.498-.759-.328-1.367-.866-2.015-1.358-.661-.502-1.266-1.068-2.004-1.486-.623-.354-1.209-.806-1.804-1.226-.417-.295-.828-.61-1.28-.837-.315-.158-.623-.318-.914-.515-.427-.289-.843-.593-1.284-.857-.244-.146-.45-.483-.774-.356-.308.12-.364.52-.596.747-.066.066-.056.206-.091.308-.035.101-.058.228-.13.292-.406.368-.66.85-.977 1.286-.447.615-.935 1.212-1.3 1.875-.434.79-.895 1.555-1.464 2.251-.125.154-.163.33-.211.518-.204.788-.418 1.578-1.126 2.093-.082.06-.132.168-.184.26-.103.188-.074.292.108.406.69.43 1.364.888 2.073 1.28.517.285.974.66 1.502.931.598.308 1.148.716 1.719 1.078.48.306.963.605 1.441.912.48.307.93.675 1.438.916.52.247.842.726 1.348.992.352.185.75.233 1.083.505.5.408 1.085.71 1.64 1.048.182.112.384.192.55.274M86 51.35c-.023-.149-.101-.284-.222-.332-.704-.282-1.238-.81-1.83-1.251-.925-.688-1.852-1.372-2.772-2.065-.46-.345-.893-.729-1.366-1.055-1.191-.825-2.395-1.633-3.603-2.435-.685-.455-1.38-.895-2.084-1.32-.77-.466-1.524-.957-2.282-1.444-1.054-.677-1.974-1.56-3.134-2.078-.304-.135-.531-.381-.763-.62-.257-.262-.67-.206-.956-.448-.373-.317-.778-.593-1.165-.892-.693-.534-1.448-.973-2.21-1.389-.36-.195-.73-.375-1.08-.59-.836-.516-1.601-1.148-2.516-1.535-.074-.031-.144-.084-.199-.143-.318-.35-.714-.58-1.125-.8-.238-.128-.447-.315-.65-.498-.206-.183-.418-.35-.645-.508-.629-.435-1.259-.864-1.918-1.254-.684-.403-1.356-.835-1.998-1.303-.661-.48-1.402-.825-2.063-1.31-.836-.614-1.813-1.019-2.62-1.69-.08-.066-.196-.094-.3-.126-.237-.075-.443-.203-.645-.35-.243-.177-.52-.305-.771-.472-.55-.368-1.187-.552-1.753-.895-1.524-.927-3.072-1.816-4.618-2.706-1.234-.71-2.446-1.458-3.652-2.214-1.161-.728-2.338-1.43-3.558-2.055-.297-.151-.47-.055-.483.297-.024.523-.014 1.048-.019 1.571-.007.89.208 1.752.339 2.623.17 1.117.306 2.239.544 3.346.18.838.456 1.648.647 2.478.373 1.618.976 3.158 1.515 4.718.43 1.249.985 2.453 1.442 3.693.267.722.47 1.47.67 2.215.335 1.246.92 2.36 1.76 3.324.326.374.627.757.915 1.159.758 1.055 1.597 2.03 2.72 2.724.49.303.944.663 1.41 1 .241.174.371.406.33.712-.062.463-.128.927-.194 1.39-.028.2-.307.408-.058.592.173.128.34-.11.519-.161.182-.053.364-.122.534-.207.951-.478 1.841-1.097 2.923-1.268.026-.004.05-.02.074-.033 1.098-.604 2.337-.776 3.512-1.126.963-.286 1.992-.366 2.998-.485.897-.105 1.805-.121 2.705-.209.577-.057 1.149-.053 1.722.022.788.104 1.577.194 2.362.317.675.106 1.35.234 2.017.387.372.084.77.176 1.081.379.495.323 1.032.492 1.582.656.394.117.842.151 1.17.369.617.406 1.324.516 1.985.77.69.265 1.378.54 2.077.777.261.09.505.18.742.331.649.412 1.333.76 2.052 1.034.23.088.457.186.683.285.982.425 1.985.777 3.029 1.027.486.117.975.116 1.459.17 1.115.128 2.234-.002 3.347-.096.296-.025.58-.173.875-.225.333-.06.623-.2.9-.383.202-.134.406-.263.612-.395m25.697-15.768c.194.046.297.002.384-.067.8-.636 1.71-1.117 2.494-1.784.61-.52 1.308-.921 2.089-1.148.35-.102.652-.258.888-.56.183-.233.404-.247.563-.038.38.495.935.772 1.39 1.171.409.36.941.561 1.36.934.244.219.544.37.753.642.076.1.227.143.344.212.549.319 1.076.657 1.543 1.103.352.335.807.56 1.218.831.643.425 1.36.77 1.915 1.292.73.686 1.675 1.06 2.362 1.784.055.058.136.102.213.126.807.248.68.969.787 1.57.007.049-.042.106-.039.16.066 1.044-.597 1.805-1.044 2.642-.338.629-.789 1.19-1.23 1.756-.413.53-.946.825-1.567 1-.053.015-.118 0-.164.026-.615.344-1.16.127-1.706-.19-.81-.472-1.622-.933-2.38-1.496-.95-.707-1.96-1.335-2.951-1.986-.509-.334-1.041-.63-1.49-1.047-.04-.037-.084-.075-.132-.101-1.223-.646-2.285-1.545-3.483-2.23-.525-.302-1.057-.594-1.592-.877-.144-.075-.31-.115-.471-.144-.377-.068-.508-.01-.687.3-.373.644-.732 1.295-1.112 1.933-.203.338-.208.78-.429 1.06-.21.267-.541.457-.705.784-.352.706-.989 1.105-1.622 1.489-.417.252-.895.268-1.348.032-.196-.102-.387-.214-.572-.332-.183-.117-.495-.205-.475-.411.025-.247-.094-.49.008-.729.109-.253.24-.499.22-.79-.004-.046.036-.116.076-.139.572-.329.605-1.113 1.194-1.427.32-.519.663-1.015 1.075-1.47.198-.22.325-.516.436-.796.104-.258.199-.515.348-.751.072-.114.117-.25.153-.38.191-.7.173-.759-.403-1.189-.22-.166-.455-.313-.684-.466l-2.405-1.604c-.024-.015-.05-.028-.067-.05-.564-.672-1.388-.97-2.082-1.454-.09-.063-.19-.116-.272-.19-.706-.626-1.542-1.074-2.274-1.659-.888-.708-1.894-1.22-2.821-1.858-.386-.266-.78-.522-1.164-.788-.159-.11-.29-.118-.44.023-.403.382-.751.792-.983 1.313-.223.501-.512.976-.796 1.447-.158.263-.328.523-.38.824-.067.374-.25.667-.49.944-.63.73-1.208 1.506-1.816 2.254-.406.5-.834 1.03-.978 1.705-.05.242-.166.468-.334.661-.117.135-.385.18-.304.436.055.173.267.173.394.273.086.067.196.103.286.165.285.2.745.28.746.703 0 .508.124 1.067-.3 1.499-.158.158-.282.327-.34.558-.072.287-.382.38-.56.587-.042.047-.16.052-.234.036-.16-.036-.35-.057-.465-.157-.477-.417-1.057-.69-1.489-1.18-.319-.363-.71-.672-1.185-.876-.42-.182-.813-.462-1.169-.758-.726-.603-1.556-1.033-2.357-1.508-.427-.252-.887-.441-1.238-.808-.056-.059-.127-.126-.2-.14-.513-.096-.872-.465-1.29-.727-1.66-1.04-3.321-2.083-4.975-3.135-1.165-.741-2.344-1.456-3.547-2.134-.741-.417-1.434-.924-2.155-1.378-.561-.353-1.123-.705-1.702-1.024-1.595-.878-3.152-1.82-4.721-2.741-1.957-1.15-3.733-2.563-5.648-3.768-.766-.733-1.704-1.221-2.589-1.77-1.005-.624-1.986-1.288-2.997-1.905-.894-.545-1.821-1.04-2.664-1.669-.374-.278-.635-.246-.797.138-.491 1.165-1.387 2.054-2.048 3.102-.236.374-.474.746-.686 1.133-.18.328-.125.502.201.684.82.457 1.647.901 2.473 1.35.097.052.208.082.299.142 1.736 1.132 3.584 2.076 5.302 3.238.682.463 1.418.846 2.114 1.288.65.413 1.303.823 1.87 1.359.174.164.411.26.614.395 1.194.797 2.38 1.603 3.6 2.362 2.576 1.604 5.165 3.19 7.69 4.88 2.823 1.89 5.683 3.727 8.552 5.548 1.189.753 2.321 1.58 3.443 2.424.663.498 1.334.985 2.002 1.474.336.245.686.469.943.806.049.065.111.13.183.164 1.058.497 1.89 1.339 2.894 1.918.287.165.535.397.876.46.074.014.156.064.205.122.102.123.143.346.336.32.153-.02.293-.143.438-.223.556-.304 1.12-.59 1.669-.91 1.026-.6 2.125-1.065 3.248-1.446.753-.255 1.526-.455 2.284-.707.712-.237 1.47-.193 2.205-.294.246-.034.503-.015.74-.076.893-.232 1.802-.248 2.712-.268.082-.001.172-.036.244-.013 1.007.307 2.077.254 3.083.56.37.114.743.204 1.086.397.55.307 1.177.472 1.678.878.02.017.046.033.073.039.788.165 1.342.737 1.995 1.14.515.318 1.066.577 1.6.863 1.072.572 2.166 1.099 3.297 1.542.388.152.662.416.829.771.293.63.517 1.278.364 1.999-.059.278-.202.449-.46.527-.406.123-.804.13-1.217-.013-1.158-.401-2.2-1.018-3.201-1.71-.299-.205-.606-.386-.941-.517-.75-.294-1.438-.687-2.09-1.162-.352-.255-.782-.404-1.18-.592-.2-.094-.438-.127-.61-.253-.936-.683-2.034-.789-3.126-.914-1.016-.117-2.036-.171-3.04.111-1.259-.053-2.452.221-3.64.628-.7.24-1.438.362-2.1.726-.216.119-.454.225-.694.261-.483.075-.857.344-1.265.58-.998.576-1.864 1.391-3.006 1.714-.581.417-1.332.522-1.87 1.03-.133.126-.344.167-.522.242-.177.076-.39.106-.532.224-.946.783-2.132.82-3.248 1.056-.419.087-.855.158-1.308.068-.249-.05-.535.072-.801.132-.61.138-1.205.013-1.792-.125-.297-.07-.58-.14-.89-.126-.617.027-1.205-.14-1.776-.354-.541-.203-1.07-.444-1.608-.66-.433-.173-.865-.35-1.314-.49-.577-.176-1.149-.389-1.57-.868-.07-.079-.178-.13-.278-.176-1.153-.521-2.29-1.083-3.548-1.332-.294-.059-.586-.17-.853-.31-.86-.448-1.776-.752-2.687-1.071-.027-.01-.055-.013-.08-.025-1.232-.607-2.538-.885-3.905-.99-.571-.043-1.144-.149-1.722-.187-.47-.03-.937-.033-1.405.01-.44.042-.88.088-1.32-.01-.103-.023-.221-.03-.32-.003-.51.14-1.041.154-1.546.277-.456.112-.916.172-1.375.249-.267.045-.53.027-.772.229-.21.175-.526.136-.8.163-.527.052-1.032.167-1.493.445-.14.085-.296.168-.454.198-.657.121-1.293.289-1.835.708-.454.025-.823.292-1.239.428-.266.088-.501.216-.617.507-.1.254-.34.355-.576.44-.548.199-1.065.435-1.495.856-.276.271-.652.412-1.04.485-.329.063-.641.163-.918.36-.044.032-.091.068-.142.083-1.296.379-2.508 1.032-3.874 1.181-.328.035-.65.127-.974.196-1.004.213-2.004.273-3.037.158-.987-.109-1.97-.224-2.947-.408-.325-.061-.649-.132-.97-.205-.886-.201-1.795-.334-2.649-.628-.852-.292-1.77-.448-2.514-1.017-.115-.087-.242-.126-.385-.055-.197.097-.371.06-.527-.095-.207-.206-.467-.296-.748-.32-.568-.05-1.072-.28-1.52-.606-.217-.159-.433-.219-.68-.247-.358-.041-.714-.092-1.068-.145-.275-.041-.545-.112-.775-.274-.45-.317-.96-.424-1.489-.37-.638.063-1.267-.012-1.9-.047-1.074-.059-2.143-.018-3.215.114-1.104.136-2.178.36-3.224.72-.808.279-1.607.589-2.404.898-.824.319-1.654.626-2.459.987-1.184.532-2.335 1.132-3.363 1.941-.086.068-.155.16-.246.22-.232.15-.589.043-.702-.213-.056-.125-.09-.262-.125-.395-.044-.167-.113-.32-.279-.39-.248-.107-.407-.285-.463-.547-.076-.356-.128-.726.037-1.06.245-.498.538-.96 1.017-1.288 1.38-.948 2.881-1.64 4.479-2.111.453-.134.889-.3 1.32-.482 2.262-.953 4.622-1.541 7.065-1.637 1.675-.066 3.365-.108 5.036.209 1.413.267 2.794.631 4.145 1.128 1.526.562 3.01 1.24 4.586 1.66.454.122.902.265 1.357.376.616.15 1.237.276 1.84.485.63.219 1.299.256 1.955.337 1.015.126 2.036.154 3.058.093.083-.005.166-.01.247-.025.786-.152 1.578-.276 2.354-.467.56-.135 1.104-.346 1.648-.546.622-.228 1.237-.477 1.851-.725.18-.071.357-.152.518-.255.646-.413.656-.531.094-1.068-.259-.248-.528-.483-.794-.723-.061-.054-.124-.142-.192-.147-.736-.06-1.14-.645-1.625-1.07-.47-.413-.97-.807-1.339-1.334-.125-.179-.304-.316-.385-.532-.039-.1-.107-.198-.184-.27-.754-.694-1.342-1.52-1.903-2.37-.242-.368-.55-.693-.588-1.168-.036-.44-.346-.814-.32-1.275.005-.106-.028-.218-.061-.32-.235-.728-.611-1.409-.698-2.183-.474-.66-.57-1.483-.934-2.2-.348-.68-.69-1.377-.877-2.14-.117-.472-.224-.971-.554-1.374-.097-.119-.14-.3-.165-.46-.098-.633-.3-1.231-.514-1.833-.222-.622-.365-1.273-.513-1.918-.105-.457-.183-.924-.227-1.39-.029-.313-.36-.487-.298-.842.047-.267.004-.552-.018-.828-.014-.164-.066-.325-.096-.49-.27-1.47-.534-2.94-.315-4.446-.108-.59-.037-1.243-.398-1.745-.262-.363-.335-.74-.385-1.148-.059-.487-.117-.976-.168-1.464-.02-.192-.07-.402-.016-.576.196-.629.378-1.27.663-1.86.28-.58 1.156-.775 1.817-.456.697.336 1.375.709 2.063 1.064.565.29 1.138.565 1.694.872.651.36 1.304.725 1.925 1.134.345.228.69.453 1.047.665.973.58 1.94 1.172 2.912 1.754.639.382 1.28.761 1.925 1.133.344.198.468.17.692-.144.176-.248.356-.496.506-.76.575-1.013 1.253-1.953 1.933-2.896.38-.525.832-1.033.934-1.72.016-.118.096-.196.19-.257.37-.238.736-.481 1.113-.71.239-.145.49-.06.627.18.101.18.097.363.081.563-.016.222.114.29.316.178.161-.09.321-.155.42-.364.227-.481.54-.566.996-.343.073.036.141.087.211.13.837.533 1.704 1.016 2.502 1.614.392.293.824.546 1.245.8 1.112.671 2.232 1.324 3.284 2.087.175.126.285.079.379-.132.35-.781.713-1.556 1.05-2.343.27-.63.507-1.277.762-1.915.061-.153.115-.32.215-.445.147-.183.199-.382.24-.605.038-.214.096-.453.225-.62.348-.452.481-.989.663-1.509.055-.156.099-.329.196-.456.462-.6.601-1.369 1.053-1.97.142-.188.182-.402.13-.631-.073-.338.08-.587.304-.817.367-.375.7-.778.895-1.275.02-.05.037-.125.076-.142.415-.179.548-.56.759-.919.188-.321.462-.614.703-.916.5-.626 1.05-1.213 1.415-1.938.013-.024.024-.056.045-.07 1.01-.634 1.854-1.573 3.131-1.722.189-.02.32.056.438.18.399.42.96.646 1.32 1.12.057.074.19.094.29.136.126.053.254.105.382.153.627.236 1.004.855 1.652 1.065.64.208 1.163.64 1.704 1.014.749.517 1.575.891 2.33 1.392.713.47 1.477.862 2.218 1.29.072.041.166.075.204.138.357.612.82 1.195.768 1.956-.043.632-.094 1.262-.227 1.892-.11.522-.022 1.087-.022 1.634.08-.006.15.01.18-.017.287-.26.577-.517.844-.797.115-.12.212-.254.364-.328.45-.219.862-.495 1.247-.813.104-.086.236-.146.365-.188.684-.221 1.372-.425 2.054-.65.28-.092.555-.096.806.034.403.209.94.134 1.236.564.163.237.415.357.62.537.705.622 1.559 1.025 2.292 1.605.195.155.394.298.568.478.404.417.81.833 1.351 1.08.122.055.236.152.322.256.254.314.604.481.96.626.209.084.42.168.568.326.497.534 1.206.758 1.74 1.231.136.122.265.15.445.135.361-.027.363-.01.469.298.162.478.199.952.124 1.463-.196 1.334-.487 2.65-.72 3.977-.115.653-.313 1.29-.285 1.964.106.117.185.02.267-.04 1.013-.718 2.033-1.43 3.145-1.981.64-.318 1.216-.746 1.87-1.033.37-.162.543-.107.73.263.062.122.09.263.159.38.18.309.34.62.708.777.299.128.566.339.837.527.205.14.458.266.574.466.222.382.569.59.918.786.943.531 1.806 1.18 2.663 1.827.88.666 1.795 1.26 2.775 1.759.23.117.413.266.46.546.018.101.097.197.166.28.076.091.18.128.29.053.136-.093.26-.204.405-.28.141-.074.394.039.398.187.018.516.327 1.011.104 1.541.037.85-.321 1.616-.515 2.418-.011.052-.018.113-.048.153-.283.36-.374.787-.47 1.224-.07.32-.237.618-.356.928-.189.486-.35.98-.439 1.544" transform="translate(-105 -381) translate(105 382) translate(0 .496)"/>
                </g>
                <path d="M105.42 57.502c.28-.019.512.052.745.135.412.145.845.186 1.275.25 1.235.186 2.458.44 3.65.826.179.059.349.153.514.25.874.507 1.795.92 2.712 1.336.926.422 1.919.606 2.907.795.453.088.915.136 1.373.2.404.055.807.081 1.22.06.458-.022.921.04 1.38.017 1.231-.06 2.41-.394 3.585-.741 1.495-.444 2.86-1.18 4.237-1.895.676-.35 1.378-.652 2.07-.97.54-.247 1.12-.191 1.686-.195.149 0 .322.087.442.186.514.421.73 1.002.783 1.649.014.167-.053.39-.195.427-.347.091-.486.409-.728.604-.609.49-1.33.726-2.02 1.033-.173.078-.362.117-.493.265-.19.212-.475.272-.681.428-.574.435-1.276.605-1.86 1.009-.108.076-.235.135-.363.17-.966.278-1.935.544-2.9.822-.189.054-.372.07-.564.059-.108-.006-.231-.026-.32.016-.671.313-1.381.215-2.08.224-.246.003-.492-.022-.735 0-.628.053-1.249.075-1.85-.174-.096-.04-.21-.052-.317-.05-.936.011-1.815-.268-2.703-.51-.156-.044-.314-.085-.475-.112-.352-.058-.673-.16-.968-.391-.232-.18-.519-.326-.802-.394-.794-.192-1.41-.682-2.035-1.158-.18-.139-.367-.233-.58-.282-.558-.127-1.113-.262-1.673-.37-.45-.087-.895-.153-1.332-.334-1.003-.413-2.056-.674-3.119-.893-.67-.139-.946-.689-1.179-1.253-.06-.148-.016-.351.12-.456.385-.299.76-.639 1.274-.583M123.293 51.108c.718.065 1.417-.1 2.114-.216.424-.07.833-.263 1.23-.444 1.293-.589 2.556-1.23 3.684-2.108.365-.284.77-.518 1.166-.757.256-.156.52-.287.743-.5.172-.166.4-.31.629-.371.349-.094.57-.293.747-.586.068-.111.18-.21.294-.275.596-.334 1.17-.725 1.804-.968 1.325-.509 2.659-1.004 4.068-1.257.844-.15 1.689-.15 2.536-.1.33.019.63.12.898.348.374.317.783.592 1.188.87.189.13.303.299.395.503.295.657.25 1.318.056 1.984-.022.076-.073.145-.113.216-.153.274-.314.365-.598.297-.212-.051-.43-.113-.616-.219-.824-.467-1.712-.698-2.65-.765-.192-.014-.38-.06-.572-.064-.567-.013-1.118-.056-1.676.214-.632.305-1.323.494-1.998.704-1.136.355-2.123.986-3.116 1.61-.09.056-.17.14-.23.229-.243.356-.607.59-.99.692-.44.117-.717.49-1.146.588-.393.507-1.015.715-1.486 1.121-.061.054-.114.136-.186.157-.485.136-.823.52-1.26.736-.332.163-.587.501-1.027.414-.064-.012-.153.052-.22.096-1.05.712-2.238.943-3.481.981-.897.027-1.794.055-2.691.093-.16.008-.32.063-.476.11-.244.074-.486.07-.729.007-.288-.076-.444-.24-.526-.55-.153-.565.007-1.032.385-1.42.192-.195.377-.383.524-.615.185-.292.466-.479.806-.513.84-.083 1.66-.386 2.52-.242M61.08 56.891c-.438-.011-.695-.083-.952-.221-.788-.422-1.633-.529-2.513-.368-.109.02-.245.06-.33.015-.42-.218-.759-.019-1.1.178-.176.102-.358.187-.559.126-.276-.084-.504.06-.72.163-.324.156-.612.378-.983.45-.192.038-.329.19-.434.37-.28.482-.767.745-1.242.957-.848.378-1.62.887-2.45 1.292-.173.084-.33.192-.519.257-.45.156-.89.339-1.326.532-.43.19-.902.292-1.36.414-.096.025-.22-.018-.321-.056-.112-.04-.241-.087-.318-.006-.27.287-.621.206-.948.244-.14.017-.295.01-.415.071-.565.288-1.153.176-1.733.104-.66-.082-1.222-.398-1.71-.833-.216-.19-.186-.362.043-.553.22-.182.465-.313.748-.365.607-.112 1.21-.248 1.821-.325.904-.113 1.76-.353 2.566-.773.498-.259 1.039-.448 1.503-.754 1.237-.816 2.542-1.53 3.707-2.454.349-.276.749-.491 1.134-.72.608-.363 1.266-.588 1.957-.75 1.044-.245 2.09-.422 3.169-.385.742.025 1.444.221 2.136.441.481.153.882.467 1.181.898.206.295.48.546.69.838.39.543.19 1.04-.46 1.182-.135.03-.276.033-.261.031M87.514 68.488c-.474.032-1.006-.04-1.552-.151-.64-.132-1.297-.2-1.94-.334-.322-.067-.643-.098-.945-.237-.167-.077-.37-.097-.559-.121-.224-.028-.43-.082-.603-.224-.06-.05-.13-.12-.2-.126-.924-.08-1.202-.81-1.612-1.392-.21-.297-.086-.574.281-.64.402-.073.808-.09 1.224-.002 1.017.216 2.04.409 3.065.595.9.163 1.816.115 2.718.044.422-.034.831-.249 1.235-.407.735-.287 1.462-.591 2.19-.893.177-.072.356-.145.512-.248 1.187-.785 2.516-.934 3.93-.824.589.046.964.346 1.308.708.177.186.279.439.39.672.104.22.022.395-.208.508-.661.326-1.367.533-2.108.603-.314.03-.558.069-.78.325-.179.206-.472.402-.744.448-.798.134-1.356.79-2.186.818-.512.432-1.236.403-1.801.713-.25.137-.513.173-.793.166-.247-.005-.494 0-.822 0M46.722 28.54c.8-.065 1.41.273 2.057.415.191.043.336.202.435.386.07.129.11.255.043.407-.254.588-.73.989-1.143 1.441-.067.073-.204.1-.312.106-.194.014-.4.035-.584-.014-.559-.149-1.044.081-1.54.272-.269.103-.409.323-.381.606.068.713.134 1.422.7 1.966.305.291.58.598.97.779.633.295 1.138.834 1.825 1.03.241.07.481.155.729.19.16.026.336-.009.498-.047.598-.137.821-.422.695-1.042-.088-.437-.132-.838.061-1.245.012-.025.018-.06.01-.085-.18-.681.225-1.051.686-1.408.324-.251.596-.283.9-.043.158.127.27.288.353.475.169.373.176.785.27 1.176.019.074-.01.173-.042.25-.303.714-.471 1.46-.62 2.223-.09.469-.353.902-.545 1.348-.033.076-.09.167-.158.196-.549.243-.901.75-1.386 1.078-.484.327-1.046.394-1.595.494-.074.013-.16-.04-.24-.066-.8-.265-1.537-.671-2.28-1.069-.42-.225-.849-.445-1.24-.72-.627-.438-1.18-.955-1.508-1.695-.191-.432-.256-.88-.287-1.339-.015-.23.017-.467-.026-.69-.193-1.012.056-1.96.469-2.844.3-.64.747-1.205 1.138-1.798.06-.092.149-.195.245-.226.627-.204 1.186-.7 1.803-.508" transform="translate(-105 -381) translate(105 382)"/>
            </g>
        </g>
    </g>
</svg>
